PathFileType	4	(X/Y/Z)	50_2_76_p1_0-1053.trc
DataRate	CameraRate	NumFrames	NumMarkers	Units	OrigDataRate	OrigDataStartFrame	OrigNumFrames
59.0	59.0	5	27	m	59.0	922	1054
Frame#	Time	RHip			RKnee			RAnkle			RBigToe			RSmallToe			RHeel			LHip			LKnee			LAnkle			LBigToe			LSmallToe			LHeel			Neck			Head			Nose			RShoulder			RElbow			RWrist			RThumb			RIndex			RPinky			LShoulder			LElbow			LWrist			LThumb			LIndex			LPinky			
		X1	Y1	Z1	X2	Y2	Z2	X3	Y3	Z3	X4	Y4	Z4	X5	Y5	Z5	X6	Y6	Z6	X7	Y7	Z7	X8	Y8	Z8	X9	Y9	Z9	X10	Y10	Z10	X11	Y11	Z11	X12	Y12	Z12	X13	Y13	Z13	X14	Y14	Z14	X15	Y15	Z15	X16	Y16	Z16	X17	Y17	Z17	X18	Y18	Z18	X19	Y19	Z19	X20	Y20	Z20	X21	Y21	Z21	X22	Y22	Z22	X23	Y23	Z23	X24	Y24	Z24	X25	Y25	Z25	X26	Y26	Z26	X27	Y27	Z27	
922	15.627118644067796	0.31906132952384536	0.6984588234815583	0.5116000427717394	0.2712977340648173	0.8243670776632022	0.9293491945596983	0.2936925706499133	1.0435223317681974	1.373985000641046	0.22919864627183822	0.7438151661444443	1.3665694521338065	0.299275492883774	0.8134614320849699	1.3950541232624942	0.2758684620696559	1.1478984058344515	1.4357642467250187	0.12098827497051583	0.681236472221902	0.5044992128767832	0.11379441974705036	0.8791217200569683	0.9379461492162933	0.11186096718450275	1.0300627563702194	1.3614847792714495	0.12139205709886447	0.7830198852935581	1.368642634930495	0.07230847539865938	0.826520661447511	1.3728539054239073	0.11810695321390081	1.1301533624310562	1.4405478433228143	0.2050605466368554	0.5917500471444161	-0.0299744468411321	0.21777995146683593	0.4577487894299095	-0.26415737374579845	0.19964715190144233	0.42343006874262396	-0.10970296050643273	0.3500505147411533	0.5914219131161098	0.03722038461043933	0.38405949744707363	0.6008086524853656	0.26656146008173925	0.37635076548295104	0.4406861214238223	0.1575412043095728	0.34105193959105073	0.3171049722172913	0.0662047933480072	0.3641203641923535	0.2624935115345711	0.08919220280038272	0.3305520864433152	0.30774445584685817	0.14031639499937962	0.06465683835899763	0.6318353690949364	0.012610674852332414	0.025829424416098732	0.5718554839672957	0.28106554688668844	0.11812106371986712	0.37770622218486066	0.16845968419672738	0.14008924243656892	0.3256732287593034	0.09575647145369275	0.1525590628352532	0.2802654574257734	0.10036469909810561	0.1569092039423969	0.2534801053049037	0.1405002128562536
923	15.64406779661017	0.3197344779102723	0.700692395079596	0.5155483037669086	0.27224490506414	0.8271001181596103	0.9337620953626047	0.2973498883063532	1.0242091421642356	1.368334559904027	0.22625485961718894	0.7625621370709399	1.3726675910406165	0.30077720929916896	0.8178938928638677	1.3999742315581705	0.27594199033670197	1.148054917002922	1.4361255331648586	0.12239360919004247	0.6828498052560347	0.5089149204235474	0.11378839807017654	0.8797637270362217	0.9381710409734291	0.11271256430665787	1.0330453271221236	1.3665379857221132	0.12177572096572271	0.7841797433413379	1.369111804930763	0.0724591907438026	0.8268859704669628	1.373023753263139	0.11418418068955424	1.1166812145320175	1.436089478857853	0.20503057424969282	0.590873991828323	-0.029856040514191943	0.21780229226764763	0.4577798910130406	-0.2642149123668767	0.19957057144638127	0.4233777478698677	-0.10966665783019348	0.35018642059517174	0.5909047809633597	0.03710394051368715	0.3767723733157581	0.5875725370721954	0.2643426341520608	0.3716434341431065	0.42957412419872343	0.1586400647665175	0.3438987492421259	0.30476160274928776	0.06737604325534602	0.36426929061003865	0.26231898158485284	0.08947883437857314	0.333109713351805	0.29475564248381003	0.140980336095198	0.06448632040867502	0.6301717893852045	0.009251276865446406	0.029953747294749353	0.5590242972267578	0.281411867258911	0.11848698792376448	0.37945943594325704	0.17191735323802418	0.1402207246014806	0.32608116335659054	0.09557378359092213	0.15260818716438868	0.2802651392106309	0.10051994822884222	0.16069445632167603	0.25656442619683895	0.14330064459819453
924	15.661016949152541	0.32199128866103394	0.6828742713585623	0.5110044973275807	0.27242171280259614	0.8267975708163022	0.9377224872938231	0.2975601509611406	1.0234938412241885	1.3725304480280716	0.22842191890122426	0.7668171629914476	1.3740831199072834	0.29795956241276356	0.835894987425757	1.4019557200750126	0.2805763348206382	1.1468250717365578	1.4399857959665197	0.12182690122841844	0.6834386751003589	0.5124626742890837	0.11386146928379273	0.8800730733047114	0.9382347892586886	0.11359047375500447	1.031042788284559	1.361467733724266	0.11674765755039629	0.7955586697798784	1.372403902156028	0.067813817036421	0.844072631569341	1.378325533847485	0.11375221735115117	1.1145324306772435	1.4345913548523834	0.20526732624553842	0.5908439932038089	-0.02983535912850742	0.21793356715906217	0.45855679487248596	-0.26076520908325207	0.19959405945821507	0.4231455811616857	-0.10969758442705646	0.3549661371707175	0.5901206981439864	0.03786728018405277	0.37610129662066627	0.6010976536981197	0.26867996043362874	0.3726416768124616	0.4303757834657586	0.1617766900880952	0.35223861603472856	0.31565993372666845	0.06588854242701049	0.36883998330663703	0.27311541171887327	0.09123914915730107	0.335717707773576	0.2834179718496203	0.14243108064209153	0.06454047796649166	0.6305498030656438	0.008680935564022746	0.02933130498531619	0.5574968306807669	0.28068786619838526	0.11801309535098761	0.367839717805146	0.1760049471520604	0.1439355451513799	0.3151492654392043	0.09667813520218126	0.15573345535603628	0.2693792000290624	0.10144795915408904	0.15722902369709707	0.25368464444338085	0.14342797599870613
925	15.677966101694915	0.31971812540680555	0.7007301697411996	0.5156299284149188	0.2723565708130963	0.8267055037782196	0.9377668329614075	0.2975310853144611	1.0234958871202735	1.3725865152103331	0.2320662317616531	0.7676213746861944	1.3744489194168303	0.29811597704618653	0.8369411318899566	1.4059911449566236	0.28036559333074873	1.1466221528872547	1.4397639420112673	0.11765028727764008	0.6827269723740731	0.5125285500802435	0.1146055635918448	0.8832620198329754	0.9432113710625725	0.11354352611595282	1.0311570337636227	1.3615252213673108	0.1125554847763256	0.7805808749507062	1.3678149486992173	0.06763633769363289	0.843978588548631	1.3783025003870149	0.11502979080423847	1.1134425280338651	1.427500129971007	0.20530291724758326	0.5906653700718331	-0.029803141643563905	0.21796357405644945	0.45878744895504503	-0.2606056158705101	0.19971042216076831	0.42248429431942786	-0.11326100012420373	0.3550837146977083	0.5894073438423364	0.03796401856824002	0.37607827253385073	0.6019047945586558	0.2723419051712036	0.3726795474154708	0.4305170693546047	0.1619137589214508	0.35177601945511827	0.3070828018196679	0.07359146997560607	0.36865527691927147	0.273489605446256	0.09450068242625827	0.3357942108483187	0.28484513682932655	0.1469258335872207	0.06455401793618441	0.6305955099554366	0.008645206451292249	0.029351121697807014	0.5575279179980989	0.28071504647140766	0.11851709606838055	0.3797617742138864	0.17179098217589764	0.1439306527686442	0.31561868410991284	0.0965566397106457	0.15582085669773243	0.2692789126888793	0.10157159138290549	0.1604934940859028	0.25582917222438173	0.14359977927850923
926	15.694915254237289	0.3197174522779725	0.7006757441160778	0.5156759514448036	0.2723381577778307	0.8267332456635534	0.9377237140475793	0.2937159138292497	1.0434855958016422	1.374051031758645	0.23253050375094925	0.7679821637700489	1.3744994869614506	0.2975912812690132	0.8344035489294244	1.4014631168512595	0.2762864661465409	1.1473944107637566	1.4399171328352633	0.12177048867286953	0.6836163119006813	0.5125562795248114	0.1135139044418455	0.8798480739760842	0.9383775505438312	0.11243211354826925	1.0275867820578022	1.356343532973006	0.11240543907387912	0.7796633798982903	1.3675108517659698	0.06758101584217328	0.8432091264099008	1.3780921152154537	0.11352877401279116	1.1142360384111853	1.434762171594152	0.20512686271008046	0.5906915828388009	-0.02982428576945099	0.21800664131554967	0.4588160409768203	-0.26049394369283346	0.19972500894300307	0.4226427430113638	-0.1133072240097271	0.35500141655254225	0.58947106337597	0.03800467153386893	0.37516228410918084	0.6023463473933809	0.27282838496899464	0.3730617174691688	0.4319321236845346	0.16503145863137295	0.34158119841312734	0.31868907886746933	0.07564596508741113	0.36866143606770874	0.2739413611000073	0.0944227692067147	0.3332014945749259	0.29628241439368536	0.1482705031768015	0.06456030991050929	0.6305531985791998	0.008741459934378701	0.029369827720819485	0.557267144291874	0.2807054545115154	0.12206315814958167	0.36841252712400757	0.17268568934207557	0.140576159848081	0.3264903331862559	0.09543914019164206	0.15591997044920866	0.26928081201602055	0.10166213010022418	0.16060708546979255	0.2559224861404889	0.14359948100018266
